<svg
    xmlns="http://www.w3.org/2000/svg"
    viewBox="0 0 734 508"
    id="vector">
    <path
        id="path"
        d="M 517.4 492.1 C 469.6 384.3 422.4 278 374.8 170.5 C 324.7 283.4 275 395.5 224.8 508.7 C 220.2 498.5 216 489.4 212 480.2 C 191.7 434.4 171.4 388.5 151.1 342.7 C 129.2 293.4 107.4 244 85.5 194.7 C 63.8 146 42.1 97.3 20.5 48.6 C 13.9 33.9 7.5 19.1 0.8 4.5 C -0.9 0.8 0 0.1 3.8 0.1 C 100.9 0.1 198 0.1 295.2 0 C 298.8 0 300.1 1.6 301.3 4.4 C 325.2 58.6 349.2 112.8 373.2 167 C 373.6 167.9 373.8 168.9 375.2 169.4 C 381.8 154.6 388.4 139.8 395 125 C 409.1 93.1 423.2 61.2 437.4 29.4 C 441 21.4 444.7 13.4 448 5.2 C 449.5 1.5 451.5 0.1 455.7 0.1 C 538.8 0.1 622 0.1 705.1 0.1 C 713.8 0.1 722.4 0.2 731.1 0 C 734.9 -0.1 735.6 0.5 733.9 4.3 C 717.9 40.1 702.1 75.9 686.2 111.7 C 658.7 173.6 631.2 235.5 603.7 297.4 C 578.5 354.2 553.5 410.9 528.3 467.7 C 525 475.5 521.5 483.1 517.4 492.1 L 517.4 492.1 Z"
        fill="#ffffff"/>
</svg>
